<?xml version="1.0" encoding="UTF-8" standalone="no"?>
<!-- Created with Inkscape (http://www.inkscape.org/) -->

<svg
   width="256"
   height="256"
   viewBox="0 0 67.733334 67.733333"
   version="1.1"
   id="svg5"
   inkscape:version="1.2.2 (b0a8486541, 2022-12-01)"
   sodipodi:docname="r2.svg"
   inkscape:export-filename="r2.png"
   inkscape:export-xdpi="96"
   inkscape:export-ydpi="96"
   xmlns:inkscape="http://www.inkscape.org/namespaces/inkscape"
   xmlns:sodipodi="http://sodipodi.sourceforge.net/DTD/sodipodi-0.dtd"
   xmlns="http://www.w3.org/2000/svg"
   xmlns:svg="http://www.w3.org/2000/svg">
  <sodipodi:namedview
     id="namedview7"
     pagecolor="#ffffff"
     bordercolor="#000000"
     borderopacity="0.25"
     inkscape:showpageshadow="2"
     inkscape:pageopacity="0.0"
     inkscape:pagecheckerboard="0"
     inkscape:deskcolor="#d1d1d1"
     inkscape:document-units="mm"
     showgrid="false"
     inkscape:zoom="3.1210938"
     inkscape:cx="97.722151"
     inkscape:cy="123.19399"
     inkscape:window-width="1920"
     inkscape:window-height="1008"
     inkscape:window-x="0"
     inkscape:window-y="0"
     inkscape:window-maximized="1"
     inkscape:current-layer="text236" />
  <defs
     id="defs2" />
  <g
     inkscape:label="Layer 1"
     inkscape:groupmode="layer"
     id="layer1">
    <g
       aria-label="R2"
       id="text236"
       style="font-size:79.7925px;font-family:monospace;-inkscape-font-specification:monospace;fill:#b5d4ff;stroke-width:1.87014">
      <rect
         style="fill:#ffffff;stroke-width:1.98172"
         id="rect1862"
         width="67.73333"
         height="67.73333"
         x="1.7801921e-06"
         y="1.7801921e-06" />
      <g
         id="g293"
         transform="matrix(0.83277516,0,0,0.83277516,5.6734873,5.6633492)">
        <path
           d="m 24.243279,33.847185 10.051986,21.155922 c 1.298706,2.779231 4.971119,-0.520042 6.648232,3.321121 l 0.740262,1.695452 0.08477,1.373061 H 32.113438 L 19.957549,34.119913 h -7.90912 v 21.428651 c 0,2.415593 0.987017,3.62339 2.96105,3.62339 h 1.090913 v 2.220787 H 3.6717746 v -2.220787 h 1.4805249 c 0.8571461,0 1.5194862,-0.155845 1.9870204,-0.467534 0.5454565,-0.389612 0.8181848,-1.389616 0.8181848,-3.000012 V 11.483465 c 0,-2.0000071 -0.9870166,-3.0000107 -2.9610499,-3.0000107 H 3.6717746 V 6.3405893 H 19.256248 c 4.805213,0 8.57146,0.9610425 11.298743,2.8831275 3.532481,2.4675412 5.298721,6.0649572 5.298721,10.7922482 0,8.026003 -3.870144,12.63641 -11.610433,13.83122 z m -12.19485,-1.94806 h 6.467556 c 3.688325,0 6.441582,-0.558443 8.259771,-1.67533 3.090921,-1.922085 4.636381,-5.246773 4.636381,-9.974063 0,-4.805213 -1.714292,-8.155875 -5.142876,-10.051986 -2.07793,-1.1428611 -4.662355,-1.7142917 -7.753276,-1.7142917 h -3.428584 c -2.025981,0 -3.038972,1.0000036 -3.038972,3.0000107 z"
           style="font-family:MOESongUN;-inkscape-font-specification:MOESongUN;fill:#1a1a1a"
           id="path656"
           sodipodi:nodetypes="ccscccccssccccscsssccscsccscscsssc" />
        <path
           d="m 63.552923,54.166257 0.432856,6.049884 -18.966455,-0.08477 c 0.0487,-1.41234 0.30844,-2.946433 0.779221,-4.602279 0.535715,-1.931821 1.28247,-3.563317 2.240263,-4.894488 1.168833,-1.607145 2.451303,-3.068186 3.847409,-4.383123 0.535715,-0.503247 2.004872,-1.761366 4.407473,-3.774356 1.623379,-1.363638 2.751628,-2.524354 3.384745,-3.482148 0.94156,-1.428573 1.41234,-3.133121 1.41234,-5.113644 0,-2.467535 -0.625001,-4.366889 -1.875003,-5.69806 -1.217534,-1.298703 -2.889614,-1.948054 -5.016241,-1.948054 -1.834418,0 -3.490264,0.543832 -4.967539,1.631496 -0.730521,0.551949 -1.331171,1.290586 -1.801951,2.215912 -0.454546,0.925326 -0.681819,1.842535 -0.681819,2.751627 0,0.779222 0.422079,1.339288 1.266236,1.680197 0.795455,0.324676 1.193183,0.868508 1.193183,1.631496 0,1.136365 -0.568183,1.704548 -1.704548,1.704548 -0.762988,0 -1.396106,-0.389611 -1.899353,-1.168833 -0.438312,-0.665585 -0.657468,-1.525976 -0.657468,-2.581172 0,-3.344161 1.290586,-5.9091 3.871758,-7.694817 1.623379,-1.120131 3.587668,-1.680197 5.892866,-1.680197 1.753249,0 3.352278,0.389611 4.797085,1.168833 3.019485,1.623379 4.529227,4.237019 4.529227,7.84092 0,3.133121 -1.379872,5.941567 -4.139616,8.425337 -0.827923,0.730521 -2.288965,1.858769 -4.383124,3.384745 -2.905848,2.110393 -5.024357,4.180201 -6.355528,6.209425 -0.714287,1.103897 -1.2013,2.110392 -1.461041,3.019484 -0.06493,0.211039 -0.259739,1.120132 -0.584417,2.727277 h 11.761381 c 0.876625,0 1.54221,-0.137987 1.996756,-0.413962 0.616884,-0.357143 1.055196,-1.112014 1.314937,-2.264613 l 0.487923,-0.826207 z"
           style="font-size:49.8702px;font-family:MOESongUN;-inkscape-font-specification:MOESongUN;fill:#ff2a2a"
           id="path658"
           sodipodi:nodetypes="ccccccccscsccscsscscscscccccscccc" />
      </g>
    </g>
  </g>
</svg>
